<?xml version="1.0" standalone="no"?>
<!DOCTYPE svg PUBLIC "-//W3C//DTD SVG 20010904//EN"
 "http://www.w3.org/TR/2001/REC-SVG-20010904/DTD/svg10.dtd">
<svg version="1.0" xmlns="http://www.w3.org/2000/svg"
 width="48.000000pt" height="48.000000pt" viewBox="0 0 48.000000 48.000000"
 preserveAspectRatio="xMidYMid meet">

<g transform="translate(0.000000,48.000000) scale(0.100000,-0.100000)"
fill="#000000" stroke="none">
<path d="M165 287 l-70 -42 52 -3 c52 -3 53 -3 73 -50 l21 -47 29 50 29 49
-24 40 c-14 23 -28 42 -32 43 -4 2 -39 -16 -78 -40z m75 -27 c0 -5 -5 -10 -11
-10 -5 0 -7 5 -4 10 3 6 8 10 11 10 2 0 4 -4 4 -10z"/>
<path d="M280 314 c0 -3 9 -22 21 -40 17 -28 27 -34 56 -34 l36 0 -24 18 c-52
40 -89 63 -89 56z"/>
</g>
</svg>
